<svg id="Layer_1" data-name="Layer 1" xmlns="http://www.w3.org/2000/svg" xmlns:xlink="http://www.w3.org/1999/xlink" viewBox="0 0 299.45 82.97"><defs><style>.cls-1{fill:#161421;}.cls-2{fill:url(#radial-gradient);}</style><radialGradient id="radial-gradient" cx="245.98" cy="-8.35" r="82.32" gradientUnits="userSpaceOnUse"><stop offset="0" stop-color="#22db7e"/><stop offset="1" stop-color="#089633"/></radialGradient></defs><path class="cls-1" d="M0,60.42,26.2,9.53H37.78l9.73,50.89H37.88L33.23,34q-.61-3.87-1.23-9.16T30.74,13h1.91Q30,19.37,27.7,24.63c-1.5,3.51-2.91,6.62-4.23,9.36L10.35,60.42Zm12.43-12.6,1.2-7.34H40.44l-1.19,7.34Z"/><path class="cls-1" d="M71.31,22.24l-1.13,7H48.49l1.13-7ZM56.59,13.15h8.88l-6,36.51a3.84,3.84,0,0,0,.38,3.08,3.33,3.33,0,0,0,2.76.95,11.78,11.78,0,0,0,1.61-.15c.68-.1,1.24-.2,1.67-.29l.24,6.87a21.53,21.53,0,0,1-3,.61,22.68,22.68,0,0,1-3,.21q-5.53,0-8-2.74T50.4,50.42Z"/><path class="cls-1" d="M90.7,22.24l-1.13,7H67.88l1.13-7ZM76,13.15h8.88l-6,36.51a3.84,3.84,0,0,0,.38,3.08,3.33,3.33,0,0,0,2.76.95,11.91,11.91,0,0,0,1.61-.15c.68-.1,1.24-.2,1.67-.29l.24,6.87a21.53,21.53,0,0,1-3,.61,22.71,22.71,0,0,1-3,.21q-5.53,0-8-2.74t-1.62-7.78Z"/><path class="cls-1" d="M103,61.24a18.33,18.33,0,0,1-8.54-1.86,12.92,12.92,0,0,1-5.5-5.33A17,17,0,0,1,87,45.74a26.89,26.89,0,0,1,1.59-9.28,24.51,24.51,0,0,1,4.51-7.72A21.22,21.22,0,0,1,100,23.47a19.35,19.35,0,0,1,8.61-1.92,17.36,17.36,0,0,1,7,1.32,11.14,11.14,0,0,1,4.78,3.76,9.68,9.68,0,0,1,1.74,5.79,8.55,8.55,0,0,1-1.94,5.73,12.88,12.88,0,0,1-5.83,3.62,43,43,0,0,1-9.65,1.9q-5.76.57-13.45.56l1-5.67q6.45,0,10.64-.27a34.29,34.29,0,0,0,6.54-.92,6.52,6.52,0,0,0,3.33-1.8,4.23,4.23,0,0,0,1-2.85,3.55,3.55,0,0,0-1.62-3.07,7.51,7.51,0,0,0-4.36-1.13,9.48,9.48,0,0,0-5.85,1.76,12.53,12.53,0,0,0-3.71,4.49,22.44,22.44,0,0,0-2,5.71,27.35,27.35,0,0,0-.6,5.36,11.78,11.78,0,0,0,.75,4.29,6.12,6.12,0,0,0,2.53,3,8.84,8.84,0,0,0,4.74,1.11,11.5,11.5,0,0,0,5.62-1.34,8.06,8.06,0,0,0,3.57-3.69l8.06,1.37a15.81,15.81,0,0,1-6.71,7.72A20.94,20.94,0,0,1,103,61.24Z"/><path class="cls-1" d="M134.46,38.36l-3.69,22.06h-8.88l6.35-38.18h8.41l-1.4,9.42-.79-.27a18.7,18.7,0,0,1,5.77-7.26,13.42,13.42,0,0,1,7.89-2.37A12.5,12.5,0,0,1,155,23.52a9.61,9.61,0,0,1,4,5,15.43,15.43,0,0,1,.39,7.89l-4,24h-8.89l3.86-23.19c.46-2.59.13-4.56-1-5.91a6,6,0,0,0-4.93-2,9.64,9.64,0,0,0-4.55,1.09,9.77,9.77,0,0,0-3.5,3.13A11.52,11.52,0,0,0,134.46,38.36Z"/><path class="cls-1" d="M174.31,61.11a12.52,12.52,0,0,1-9.65-4c-2.45-2.65-3.67-6.4-3.67-11.22a31.17,31.17,0,0,1,1.24-8.76,26.49,26.49,0,0,1,3.68-7.77,18.62,18.62,0,0,1,5.92-5.55,15.38,15.38,0,0,1,8-2.07,11.34,11.34,0,0,1,5.6,1.18,8.62,8.62,0,0,1,3.14,2.83,13.45,13.45,0,0,1,1.51,3.06h.37l3.21-19.3h8.88l-8.43,50.89h-8.71l1.06-6h-.55a18.49,18.49,0,0,1-2.43,3.11,12.09,12.09,0,0,1-3.74,2.59A12.8,12.8,0,0,1,174.31,61.11Zm2.63-7.31a9.21,9.21,0,0,0,5.21-1.49,12.54,12.54,0,0,0,3.75-3.94A19.47,19.47,0,0,0,188.19,43a21.94,21.94,0,0,0,.77-5.73,9.49,9.49,0,0,0-1.72-6,6.21,6.21,0,0,0-5.21-2.2,9.27,9.27,0,0,0-5.21,1.47,12.33,12.33,0,0,0-3.74,3.89,19.59,19.59,0,0,0-2.27,5.3,21.9,21.9,0,0,0-.77,5.66,10.1,10.1,0,0,0,1.69,6.09A6,6,0,0,0,176.94,53.8Z"/><path class="cls-2" d="M267.64,42.47v5.25l-9,0V22l23.83,21.82a22.65,22.65,0,1,0-11.29,9.45l.58-.22,7.12,6.53-1.27.65a31,31,0,0,1-14.47,3.54,31.55,31.55,0,1,1,31.55-31.55A31.27,31.27,0,0,1,289.19,50l10.26,9.39L293.37,66Zm-57.17,18v-9h6.88V11.61h-6.88v-9h22.76v9h-6.88V51.42h6.88v9Z"/></svg>